<svg xmlns="http://www.w3.org/2000/svg" viewBox="0 0 32 32" fill="none">
  <defs>
    <linearGradient id="bg" x1="0" y1="0" x2="32" y2="32">
      <stop offset="0%" stop-color="#3B82F6"/>
      <stop offset="100%" stop-color="#06B6D4"/>
    </linearGradient>
  </defs>
  <!-- Rounded square background -->
  <rect width="32" height="32" rx="7" fill="url(#bg)"/>
  <!-- Chat bubble body -->
  <path d="M7 9.5C7 8.67 7.67 8 8.5 8H23.5C24.33 8 25 8.67 25 9.5V18.5C25 19.33 24.33 20 23.5 20H14L10 24V20H8.5C7.67 20 7 19.33 7 18.5V9.5Z" fill="white" fill-opacity="0.95"/>
  <!-- Positive smiley (left) -->
  <circle cx="12" cy="13.5" r="3" fill="#10B981"/>
  <circle cx="11" cy="12.5" r="0.5" fill="white"/>
  <circle cx="13" cy="12.5" r="0.5" fill="white"/>
  <path d="M10.5 14.5C10.5 14.5 11 15.5 12 15.5C13 15.5 13.5 14.5 13.5 14.5" stroke="white" stroke-width="0.5" stroke-linecap="round" fill="none"/>
  <!-- Negative frowny (right) -->
  <circle cx="20" cy="13.5" r="3" fill="#F43F5E"/>
  <circle cx="19" cy="12.5" r="0.5" fill="white"/>
  <circle cx="21" cy="12.5" r="0.5" fill="white"/>
  <path d="M18.5 15C18.5 15 19 14 20 14C21 14 21.5 15 21.5 15" stroke="white" stroke-width="0.5" stroke-linecap="round" fill="none"/>
  <!-- Analysis bar mini chart -->
  <rect x="13.5" y="19" width="1.5" height="2.5" rx="0.5" fill="white" fill-opacity="0.6"/>
  <rect x="16" y="18" width="1.5" height="3.5" rx="0.5" fill="white" fill-opacity="0.6"/>
  <rect x="18.5" y="19.5" width="1.5" height="2" rx="0.5" fill="white" fill-opacity="0.6"/>
  <rect x="21" y="18.5" width="1.5" height="3" rx="0.5" fill="white" fill-opacity="0.6"/>
</svg>